<svg width="53" height="52" viewBox="0 0 53 52" fill="none" xmlns="http://www.w3.org/2000/svg">
<path d="M45.678 3.52995C51.8303 8.34924 54.2614 19.0205 52.376 29.2984C50.4907 39.6255 44.2888 49.51 36.4 51.5754C28.5608 53.6408 18.9851 47.7888 12.2375 42.281C5.44021 36.7733 1.37178 31.5114 0.280245 25.9053C-0.76167 20.2991 1.17332 14.2996 4.89444 10.0704C8.61557 5.79206 14.0732 3.28406 21.7636 1.51371C29.5035 -0.305823 39.4761 -1.33853 45.678 3.52995Z" fill="#515A60"/>
<path d="M18.888 33C17.528 33 16.528 32.712 15.888 32.136C15.264 31.544 14.952 30.856 14.952 30.072C14.952 29.448 15.152 28.872 15.552 28.344C15.952 27.816 16.64 27.416 17.616 27.144L18.312 28.992C17.816 29.104 17.456 29.248 17.232 29.424C17.024 29.6 16.92 29.832 16.92 30.12C16.92 30.44 17.08 30.704 17.4 30.912C17.736 31.104 18.224 31.2 18.864 31.2C19.856 31.2 20.624 30.96 21.168 30.48C21.712 30 21.984 29.392 21.984 28.656C21.984 28.176 21.888 27.752 21.696 27.384C21.504 27 21.184 26.6 20.736 26.184C20.288 25.768 19.672 25.288 18.888 24.744C17.896 24.04 17.112 23.448 16.536 22.968C15.976 22.488 15.576 22.048 15.336 21.648C15.112 21.232 15 20.784 15 20.304C15 19.936 15.104 19.536 15.312 19.104C15.536 18.656 15.848 18.24 16.248 17.856L17.832 18.696C17.608 18.936 17.424 19.176 17.28 19.416C17.136 19.656 17.064 19.896 17.064 20.136C17.064 20.344 17.096 20.544 17.16 20.736C17.224 20.928 17.36 21.136 17.568 21.36C17.776 21.584 18.08 21.856 18.48 22.176C18.896 22.48 19.44 22.864 20.112 23.328C21.04 23.952 21.776 24.528 22.32 25.056C22.864 25.584 23.248 26.128 23.472 26.688C23.712 27.232 23.832 27.88 23.832 28.632C23.832 29.528 23.616 30.304 23.184 30.96C22.768 31.616 22.184 32.12 21.432 32.472C20.696 32.824 19.848 33 18.888 33ZM41.3711 18.072V19.776H38.8511V33H37.0031V29.76L37.4351 31.032C36.8751 30.184 36.3071 29.4 35.7311 28.68C35.1711 27.96 34.5711 27.376 33.9311 26.928C33.3071 26.48 32.6191 26.256 31.8671 26.256C31.2751 26.256 30.7711 26.408 30.3551 26.712C29.9551 27.016 29.7551 27.472 29.7551 28.08C29.7551 28.608 29.9471 29.056 30.3311 29.424C30.7151 29.776 31.2831 30.08 32.0351 30.336L31.4351 32.184C30.5711 31.88 29.8671 31.512 29.3231 31.08C28.7951 30.648 28.4031 30.176 28.1471 29.664C27.9071 29.136 27.7871 28.584 27.7871 28.008C27.7871 27.24 27.9711 26.6 28.3391 26.088C28.7231 25.576 29.2031 25.192 29.7791 24.936C30.3711 24.664 30.9631 24.528 31.5551 24.528C32.5151 24.528 33.3551 24.704 34.0751 25.056C34.8111 25.408 35.4511 25.88 35.9951 26.472C36.5551 27.064 37.0591 27.728 37.5071 28.464L37.0991 28.536C37.0671 28.168 37.0431 27.8 37.0271 27.432C37.0111 27.048 37.0031 26.656 37.0031 26.256V19.776H25.9631V18.072H41.3711ZM33.3791 25.248C33.3791 25.344 33.3711 25.44 33.3551 25.536C33.3551 25.632 33.3471 25.728 33.3311 25.824L31.5071 25.272C31.4751 24.344 31.3151 23.6 31.0271 23.04C30.7391 22.48 30.2831 22.056 29.6591 21.768C29.0351 21.464 28.1871 21.256 27.1151 21.144L27.4271 19.416L28.5311 19.728C29.2991 19.792 29.9791 19.952 30.5711 20.208C31.1791 20.448 31.6911 20.792 32.1071 21.24C32.5231 21.688 32.8351 22.248 33.0431 22.92C33.2671 23.576 33.3791 24.352 33.3791 25.248Z" fill="white"/>
</svg>
